<!DOCTYPE svg PUBLIC "-//W3C//DTD SVG 1.1//EN" "http://www.w3.org/Graphics/SVG/1.1/DTD/svg11.dtd">
<!-- Uploaded to: SVG Repo, www.svgrepo.com, Transformed by: SVG Repo Mixer Tools -->
<svg fill="#000000" height="800px" width="800px" version="1.1" id="Layer_1" xmlns="http://www.w3.org/2000/svg" xmlns:xlink="http://www.w3.org/1999/xlink" viewBox="0 0 496.169 496.169" xml:space="preserve">
<g id="SVGRepo_bgCarrier" stroke-width="0"/>
<g id="SVGRepo_tracerCarrier" stroke-linecap="round" stroke-linejoin="round"/>
<g id="SVGRepo_iconCarrier"> <g transform="translate(2 1)"> <g> <g> <path d="M467.574,103.33c-1.576-25.323-21.939-44.678-47.733-44.678H73.192c-25.761,0-46.104,19.307-47.726,44.582 c-58.982,89.638-5.81,181.493,2.401,194.631l24.341,130.098c0.839,4.197,4.197,6.715,8.393,6.715c0.839,0,0.839,0,1.679,0.839 c4.197-0.839,7.554-5.875,6.715-10.072L43.815,291.99l-0.839-1.679c-0.799-0.799-56.427-83.845-10.205-167.894l8.526-12.565 c5.228-0.523,16.155-1.534,30.32-1.537c30.155,0.019,74.335,4.54,109.865,27.502c1.694,1.095,3.369,2.232,5.021,3.412 c27.679,20.969,45.299,50.32,51.187,89.728c-0.278,39.164-22.031,75.736-56.223,93.25c-4.197,1.679-5.875,6.715-3.357,10.911 c1.679,2.518,4.197,4.197,7.554,4.197c1.679,0,2.518-0.839,3.357-0.839c20.407-10.42,37.205-26.914,48.682-46.674v137.323 c0,5.036,3.357,8.393,8.393,8.393c2.758,0,5.007-1.012,6.483-2.75c1.738-1.475,2.75-3.724,2.75-6.482V291.95 c11.222,18.809,27.339,34.483,47.003,44.525c1.679,0.839,2.518,0.839,4.197,0.839c3.357,0,5.875-1.679,6.715-4.197 c2.518-3.357,0.839-8.393-3.357-10.911c-28.853-14.778-48.847-43.129-54.557-75.154v-18.852 c5.875-38.61,23.502-68.826,51.2-88.97c36.205-25.861,83.031-30.866,114.351-30.913c14.016,0.018,24.826,1.017,30.016,1.536 c0,0.839,0.839,0.839,0.839,1.679l10.16,15.507c41.907,82.062-10.323,159.35-12.678,163.274l-0.839,1.679l-25.18,132.616 c-0.839,5.036,2.518,9.233,6.715,10.072c0.839,0,0.839,0,1.679,0c3.357,0,6.715-2.518,7.554-7.554l24.341-129.259 C471.695,284.732,525.635,192.938,467.574,103.33z M73.192,75.439h347.488c11.553,0,22.281,7.308,27.425,17.125 c-12.588-1.263-35.282-2.498-61.315,0.659c-28.985,3.226-62.192,11.911-90.334,32.577 c-23.502,16.787-40.289,39.449-50.361,67.148c-7.866-21.631-19.846-40.173-35.902-55.262c-0.282-0.267-0.566-0.534-0.851-0.799 c-0.575-0.531-1.149-1.062-1.734-1.584c-2.364-2.123-4.816-4.164-7.351-6.13c-0.13-0.101-0.26-0.202-0.391-0.302 c-1.356-1.043-2.727-2.073-4.132-3.071c-18.075-13.075-38.263-21.383-58.063-26.559c-0.339-0.089-0.677-0.182-1.016-0.269 c-0.364-0.093-0.727-0.182-1.09-0.274c-37.041-9.365-72.301-7.92-89.752-6.229C50.948,82.7,60.855,75.439,73.192,75.439z"/> <path d="M434.95,218.127c0-5.036-0.839-7.554-1.679-9.233c-5.036-12.59-18.466-19.305-31.056-15.948 c-5.875,1.679-10.072,5.036-13.43,9.233c-5.036-2.518-10.911-2.518-15.948-0.839c-12.59,3.357-19.305,16.787-16.787,30.216 c0,0.839,0.839,4.197,3.357,8.393c3.357,5.875,9.233,10.911,15.948,14.269l26.859,11.751c3.357,0.839,6.715,0.839,7.554,0.839 c0.839-0.839,1.679-0.839,3.357-2.518l15.948-25.18C433.271,232.396,434.95,225.681,434.95,218.127z M413.127,228.199 l-11.751,19.305l-20.144-9.233c-3.357-1.679-6.715-4.197-8.393-7.554c-0.839-1.679-0.839-2.518-0.839-2.518 c-0.839-5.036,0.839-10.072,3.357-12.59c3.357-0.839,5.875,0,8.393,2.518c2.518,2.518,5.875,3.357,9.233,2.518 c3.357-0.839,5.875-3.357,5.875-6.715c0.839-3.357,2.518-5.875,5.875-6.715c5.036-1.679,9.233,2.518,10.911,6.715 c0,0,0.839,1.679,0.839,3.357C416.484,220.645,415.645,224.842,413.127,228.199z"/> </g> </g> </g> </g>
</svg>