<!DOCTYPE svg PUBLIC "-//W3C//DTD SVG 1.1//EN" "http://www.w3.org/Graphics/SVG/1.1/DTD/svg11.dtd">
<!-- Uploaded to: SVG Repo, www.svgrepo.com, Transformed by: SVG Repo Mixer Tools -->
<svg height="800px" width="800px" version="1.1" id="Capa_1" xmlns="http://www.w3.org/2000/svg" xmlns:xlink="http://www.w3.org/1999/xlink" viewBox="0 0 196.634 196.634" xml:space="preserve" fill="#000000">
<g id="SVGRepo_bgCarrier" stroke-width="0"/>
<g id="SVGRepo_tracerCarrier" stroke-linecap="round" stroke-linejoin="round"/>
<g id="SVGRepo_iconCarrier"> <g> <g> <path style="fill:#010002;" d="M186.339,98.155c-3.293-3.962-6.403-7.709-8.052-11.842c-1.446-3.625-1.8-7.856-2.144-11.975 c-0.515-6.17-1.052-12.547-5.175-17.586c-3.675-4.502-12.043-9.52-17.243-11.213c-3.121-1.013-6.367-1.152-9.133-1.152 c-0.859,0-1.718,0.014-2.577,0.029c-0.863,0.014-1.718,0.032-2.57,0.032c-4.52,0-8.228-0.451-11.656-2.645 c-2.122-1.356-3.837-3.171-5.662-5.096c-1.675-1.761-3.407-3.593-5.49-5.046c-3.414-2.38-7.448-2.749-11.363-3.096 c-2.516-0.229-4.892-0.444-6.968-1.185c-0.082-0.032-0.154-0.036-0.236-0.047c-0.197-0.039-0.372-0.036-0.569,0.007l-0.197,0.039 c-2.086,0.744-4.277,0.956-6.599,1.185c-3.586,0.351-7.29,0.712-10.712,3.096c-2.086,1.46-3.811,3.285-5.501,5.068 c-1.822,1.915-3.536,3.722-5.647,5.075c-3.432,2.194-7.136,2.645-11.649,2.645c-0.855,0-1.711-0.018-2.577-0.032 c-0.859-0.014-1.714-0.029-2.584-0.029c-2.759,0-6.002,0.14-9.122,1.152c-5.207,1.693-13.567,6.71-17.246,11.213 c-4.13,5.046-4.663,11.434-5.179,17.612c-0.34,4.094-0.691,8.321-2.147,11.95c-1.65,4.137-4.763,7.888-8.06,11.867 c-7.294,8.779-14.838,17.862-6.875,31.791c0.387,0.698,1.367,0.948,2.036,0.558c0.712-0.404,0.966-1.321,0.558-2.04 c-6.936-12.132-0.376-20.034,6.596-28.42c3.293-3.969,6.696-8.077,8.528-12.644c1.603-4.012,1.979-8.457,2.344-12.812 c0.497-5.984,0.966-11.631,4.513-15.972c3.246-3.969,11.048-8.693,15.854-10.253c2.716-0.884,5.536-1.006,8.178-1.006 c0.827,0,1.661,0.014,2.552,0.029c0.855,0.014,1.718,0.029,2.584,0.029c4.384,0,9.029-0.376,13.306-3.114 c2.448-1.568,4.452-3.683,6.231-5.569c1.643-1.732,3.196-3.364,5.025-4.642c2.77-1.936,5.934-2.248,9.291-2.577 c1.993-0.193,4.47-0.437,6.807-1.192c2.369,0.759,4.939,0.991,7.215,1.199c3.507,0.319,7.143,0.644,9.903,2.57 c1.825,1.274,3.375,2.91,5.039,4.663c1.865,1.965,3.794,3.998,6.209,5.547c4.277,2.738,8.933,3.114,13.324,3.114 c0.855,0,1.714-0.014,2.573-0.029c0.866-0.014,1.721-0.029,2.57-0.029c2.63,0,5.436,0.118,8.16,1.006 c4.799,1.56,12.598,6.281,15.854,10.253c3.536,4.334,4.012,9.981,4.517,15.972c0.358,4.313,0.723,8.765,2.341,12.812 c1.832,4.585,5.247,8.697,8.55,12.666c6.943,8.367,13.503,16.269,6.574,28.402c-0.2,0.351-0.251,0.748-0.147,1.131 c0.107,0.387,0.354,0.709,0.701,0.905c0.225,0.129,0.483,0.2,0.744,0.2c0.53,0,1.031-0.29,1.292-0.755 C201.191,116.049,193.65,106.963,186.339,98.155z"/> <path style="fill:#010002;" d="M162.027,101.713c-0.047-0.351-0.211-0.666-0.465-0.909c-4.449-10.547-14.741-14.777-25.209-17.769 c-0.089-0.021-0.179-0.039-0.268-0.043c0.154-1.07,0.279-2.079,0.372-3.063c0.039-0.394-0.075-0.787-0.329-1.099 c-0.254-0.311-0.612-0.501-1.016-0.54l-0.129-0.007c-0.784,0-1.424,0.58-1.503,1.342c-2.434,24.383-13.281,26.151-30.764,27.017 c0,0-2.28-0.183-3.035-6.821l0.025-0.236c0.025-0.225,0.054-0.455,0.061-0.684c0.036-0.397-0.104-0.795-0.379-1.099 c-0.258-0.497-0.787-0.827-1.414-0.827h-0.007c-0.823,0.054-1.449,0.773-1.399,1.6c0.036,0.419,0.075,0.816,0.122,1.142 c-0.719,7.104-3.078,7.247-3.085,7.251c-17.476-0.863-28.309-2.63-30.742-27.01c-0.075-0.755-0.737-1.346-1.5-1.346l-0.14,0.007 c-0.394,0.043-0.755,0.229-1.006,0.54c-0.254,0.311-0.372,0.701-0.333,1.099c0.089,0.855,0.186,1.675,0.293,2.477 c-10.414,2.992-20.636,7.222-25.056,17.73c-0.258,0.233-0.426,0.548-0.472,0.909c-1.61,12.88-6.399,23.484-13.138,29.103 c-0.637,0.526-0.719,1.474-0.197,2.108c0.515,0.612,1.503,0.694,2.108,0.193c10.146-8.457,13.231-23.943,14.094-30.32l0.014-0.032 c3.539-9.445,12.691-13.521,21.373-16.187c-0.329,1.371-0.862,3.056-1.385,4.699c-1.535,4.842-3.275,10.325-2.312,14.176 c1.356,4.062,3.403,6.585,5.214,8.815c2.033,2.527,3.801,4.706,4.513,8.897c2.577,8.761-0.032,13.972-2.33,18.578 c-4.18,8.353-5.819,14.14,12.283,27.307c0.644,0.469,1.621,0.304,2.083-0.333c0.236-0.322,0.336-0.719,0.272-1.12 c-0.061-0.39-0.272-0.734-0.598-0.97c-16.971-12.343-14.738-16.803-11.352-23.567c2.412-4.839,5.422-10.862,2.555-20.564 c-0.802-4.806-2.992-7.508-5.118-10.135c-1.721-2.129-3.504-4.334-4.649-7.752c-0.73-2.913,0.941-8.188,2.294-12.437 c0.319-1.02,0.633-2.022,0.905-2.974c4.398,18.284,16.133,20.296,32.034,21.076c0.14,0.025,1.478,0.165,2.892-0.981 c0.812-0.666,1.496-1.621,2.036-2.856c0.523,1.081,1.152,1.929,1.89,2.527c1.432,1.17,2.727,0.998,2.759,0.998 c16.058-0.798,27.876-2.845,32.22-21.373c0.344,1.249,0.777,2.613,1.202,3.965c1.335,4.23,2.996,9.491,2.301,12.283 c-1.174,3.529-2.953,5.74-4.688,7.884c-2.122,2.613-4.302,5.318-5.057,9.931c-2.917,9.899,0.097,15.919,2.52,20.761 c3.378,6.75,5.604,11.209-11.366,23.549c-0.669,0.483-0.816,1.417-0.333,2.094c0.283,0.379,0.737,0.612,1.213,0.612 c0.319,0,0.619-0.097,0.88-0.286c18.102-13.163,16.456-18.95,12.283-27.31c-2.305-4.599-4.914-9.813-2.29-18.746 c0.673-4.026,2.437-6.206,4.477-8.729c1.807-2.226,3.847-4.753,5.236-8.922c0.934-3.736-0.809-9.219-2.337-14.058l-0.057-0.186 c-0.523-1.65-1.016-3.221-1.331-4.52c8.679,2.666,17.826,6.743,21.355,16.119l0.032,0.122c0.873,6.385,3.976,21.863,14.094,30.295 c0.612,0.512,1.593,0.426,2.112-0.19c0.526-0.63,0.444-1.571-0.193-2.104C168.426,125.201,163.634,114.596,162.027,101.713z"/> <path style="fill:#010002;" d="M116.669,62.843c0.225-0.333,0.301-0.73,0.225-1.12c-0.154-0.795-0.991-1.342-1.761-1.174 c-3.994,0.798-7.201,3.142-10.3,5.404c-3.031,2.215-5.891,4.305-8.879,4.305c-2.702,0-5.247-1.9-7.938-3.908 c-2.795-2.083-5.687-4.237-9.266-4.789c-0.859-0.111-1.571,0.447-1.7,1.253c-0.125,0.812,0.437,1.575,1.249,1.707 c2.831,0.433,5.415,2.355,7.927,4.23c2.97,2.212,6.038,4.502,9.727,4.502c3.962,0,7.208-2.369,10.647-4.878 c2.834-2.076,5.766-4.219,9.122-4.892C116.111,63.401,116.447,63.179,116.669,62.843z"/> <path style="fill:#010002;" d="M98.485,76.711c0.132-0.387,0.1-0.805-0.079-1.174c-0.369-0.741-1.321-1.066-2.065-0.684 c-0.759,0.376-1.07,1.299-0.687,2.054c0.261,0.526,0.795,0.855,1.381,0.855c0.233,0,0.476-0.057,0.68-0.165 C98.084,77.416,98.36,77.101,98.485,76.711z"/> <path style="fill:#010002;" d="M108.409,75.419c0.372-0.186,0.644-0.501,0.773-0.895c0.129-0.383,0.1-0.805-0.079-1.167 c-0.369-0.737-1.306-1.07-2.061-0.691c-0.762,0.379-1.07,1.306-0.687,2.065c0.258,0.523,0.791,0.848,1.374,0.848 C107.965,75.58,108.198,75.523,108.409,75.419z"/> <path style="fill:#010002;" d="M115.048,83.944c0.755-0.376,1.063-1.306,0.684-2.061c-0.361-0.73-1.313-1.063-2.061-0.691 c-0.755,0.376-1.063,1.306-0.687,2.061c0.261,0.523,0.791,0.852,1.381,0.852C114.6,84.105,114.822,84.051,115.048,83.944z"/> <path style="fill:#010002;" d="M124.682,89.226c-0.759,0.379-1.067,1.303-0.687,2.061c0.261,0.526,0.795,0.848,1.378,0.848 c0.24,0,0.469-0.05,0.687-0.157c0.752-0.379,1.063-1.303,0.687-2.065C126.378,89.176,125.43,88.847,124.682,89.226z"/> <path style="fill:#010002;" d="M111.537,96.981c-0.755,0.376-1.066,1.306-0.687,2.065c0.258,0.523,0.787,0.848,1.378,0.848 c0.24,0,0.465-0.057,0.687-0.161c0.755-0.379,1.063-1.306,0.684-2.061C113.23,96.931,112.285,96.606,111.537,96.981z"/> <path style="fill:#010002;" d="M107.5,81.757c-0.369-0.741-1.324-1.066-2.061-0.691c-0.369,0.183-0.644,0.497-0.773,0.888 s-0.1,0.805,0.082,1.174c0.258,0.523,0.791,0.852,1.378,0.852c0.236,0,0.469-0.057,0.684-0.165 C107.568,83.435,107.879,82.508,107.5,81.757z"/> <path style="fill:#010002;" d="M120.91,73.293c0.24,0,0.465-0.057,0.687-0.165c0.755-0.379,1.066-1.303,0.684-2.061 c-0.365-0.741-1.317-1.063-2.054-0.687c-0.372,0.179-0.648,0.494-0.777,0.88c-0.125,0.39-0.1,0.812,0.082,1.181 C119.79,72.964,120.316,73.293,120.91,73.293z"/> <path style="fill:#010002;" d="M119.536,79.695c0.254,0.523,0.784,0.852,1.374,0.852c0.233,0,0.472-0.057,0.687-0.161 c0.755-0.376,1.066-1.306,0.684-2.061c-0.365-0.734-1.331-1.056-2.054-0.691c-0.372,0.183-0.648,0.497-0.777,0.884 C119.325,78.905,119.35,79.323,119.536,79.695z"/> <path style="fill:#010002;" d="M127.506,83.979c0.24,0,0.472-0.057,0.684-0.165c0.759-0.379,1.07-1.306,0.687-2.058 c-0.369-0.741-1.342-1.063-2.058-0.691c-0.369,0.183-0.648,0.494-0.773,0.88c-0.132,0.39-0.104,0.812,0.075,1.177 C126.389,83.65,126.915,83.979,127.506,83.979z"/> <path style="fill:#010002;" d="M104.372,93.975c-0.369,0.183-0.644,0.497-0.773,0.88c-0.129,0.394-0.104,0.812,0.079,1.181 c0.258,0.526,0.791,0.852,1.378,0.852c0.236,0,0.469-0.054,0.684-0.161c0.755-0.379,1.066-1.306,0.687-2.061 C106.065,93.925,105.109,93.606,104.372,93.975z"/> <path style="fill:#010002;" d="M118.09,90.292c-0.759,0.376-1.067,1.299-0.691,2.061c0.258,0.526,0.787,0.852,1.378,0.852 c0.24,0,0.465-0.054,0.687-0.161c0.755-0.379,1.067-1.306,0.684-2.061C119.779,90.242,118.831,89.917,118.09,90.292z"/> <path style="fill:#010002;" d="M119.156,99.114c-0.365,0.183-0.644,0.497-0.773,0.888s-0.104,0.809,0.082,1.174 c0.258,0.526,0.787,0.855,1.374,0.855c0.236,0,0.469-0.061,0.687-0.165c0.369-0.183,0.637-0.497,0.766-0.888 c0.132-0.39,0.1-0.809-0.075-1.174C120.853,99.071,119.883,98.749,119.156,99.114z"/> <path style="fill:#010002;" d="M93.754,82.197c-0.369-0.741-1.321-1.066-2.058-0.691c-0.372,0.183-0.648,0.501-0.777,0.888 c-0.132,0.39-0.097,0.812,0.082,1.174c0.258,0.523,0.784,0.852,1.374,0.852c0.24,0,0.469-0.054,0.68-0.161 C93.818,83.883,94.126,82.959,93.754,82.197z"/> <path style="fill:#010002;" d="M77.151,72.441c0.261,0.523,0.791,0.852,1.378,0.852c0.24,0,0.469-0.057,0.68-0.161 c0.755-0.372,1.07-1.299,0.694-2.065c-0.369-0.741-1.317-1.066-2.065-0.687C77.08,70.756,76.772,71.682,77.151,72.441z"/> <path style="fill:#010002;" d="M89.563,100.524c-0.369,0.183-0.644,0.497-0.777,0.888c-0.129,0.39-0.097,0.812,0.082,1.17 c0.254,0.523,0.798,0.855,1.378,0.855c0.236,0,0.472-0.057,0.68-0.161c0.762-0.376,1.074-1.299,0.691-2.069 C91.245,100.478,90.3,100.156,89.563,100.524z"/> <path style="fill:#010002;" d="M98.807,90.661c0.236,0,0.476-0.057,0.684-0.161c0.369-0.183,0.648-0.497,0.773-0.888 c0.129-0.39,0.097-0.805-0.082-1.174c-0.372-0.741-1.331-1.056-2.054-0.691c-0.369,0.183-0.644,0.497-0.773,0.884 c-0.136,0.387-0.107,0.809,0.075,1.177C97.69,90.339,98.22,90.661,98.807,90.661z"/> <path style="fill:#010002;" d="M85.472,79.899c0.129-0.39,0.1-0.809-0.079-1.167c-0.361-0.741-1.317-1.063-2.061-0.691 c-0.372,0.183-0.648,0.501-0.777,0.888c-0.132,0.39-0.1,0.812,0.082,1.177c0.261,0.523,0.795,0.848,1.378,0.848 c0.24,0,0.472-0.057,0.68-0.165C85.071,80.604,85.347,80.29,85.472,79.899z"/> <path style="fill:#010002;" d="M92.691,90.983c-0.369-0.741-1.324-1.066-2.058-0.691c-0.372,0.183-0.644,0.497-0.777,0.888 c-0.129,0.387-0.1,0.805,0.082,1.174c0.261,0.523,0.791,0.852,1.378,0.852c0.236,0,0.469-0.057,0.684-0.161 C92.759,92.669,93.067,91.742,92.691,90.983z"/> <path style="fill:#010002;" d="M82.076,93.975c-0.372,0.186-0.644,0.505-0.769,0.891c-0.132,0.387-0.104,0.809,0.075,1.17 c0.258,0.526,0.787,0.855,1.378,0.855c0.236,0,0.476-0.057,0.684-0.165c0.759-0.376,1.066-1.303,0.691-2.061 C83.769,93.925,82.82,93.603,82.076,93.975z"/> <path style="fill:#010002;" d="M84.137,88.181c-0.369-0.741-1.317-1.063-2.061-0.691c-0.755,0.379-1.063,1.306-0.684,2.065 c0.258,0.526,0.787,0.848,1.371,0.848c0.236,0,0.476-0.057,0.684-0.161c0.372-0.183,0.648-0.505,0.777-0.891 C84.356,88.965,84.323,88.546,84.137,88.181z"/> <path style="fill:#010002;" d="M69.779,78.829c0.236,0,0.472-0.057,0.684-0.161c0.759-0.383,1.066-1.306,0.687-2.061 c-0.365-0.741-1.306-1.063-2.061-0.691c-0.759,0.376-1.07,1.303-0.687,2.061C68.67,78.504,69.192,78.829,69.779,78.829z"/> <path style="fill:#010002;" d="M73.093,89.587c-0.369,0.179-0.641,0.497-0.769,0.88c-0.132,0.39-0.104,0.812,0.082,1.174 c0.258,0.526,0.787,0.855,1.378,0.855c0.236,0,0.465-0.057,0.684-0.165c0.369-0.183,0.641-0.501,0.769-0.888 c0.132-0.39,0.1-0.812-0.075-1.174C74.793,89.53,73.83,89.215,73.093,89.587z"/> <path style="fill:#010002;" d="M74.865,81.066c-0.369,0.183-0.644,0.497-0.773,0.888c-0.132,0.39-0.1,0.805,0.079,1.174 c0.261,0.523,0.795,0.852,1.381,0.852c0.236,0,0.469-0.057,0.684-0.165c0.759-0.379,1.066-1.303,0.684-2.058 C76.557,81.016,75.609,80.69,74.865,81.066z"/> </g> </g> </g>
</svg>