<!DOCTYPE svg PUBLIC "-//W3C//DTD SVG 1.1//EN" "http://www.w3.org/Graphics/SVG/1.1/DTD/svg11.dtd">
<!-- Uploaded to: SVG Repo, www.svgrepo.com, Transformed by: SVG Repo Mixer Tools -->
<svg height="105px" width="105px" version="1.1" id="Capa_1" xmlns="http://www.w3.org/2000/svg" xmlns:xlink="http://www.w3.org/1999/xlink" viewBox="0 0 453.05 453.05" xml:space="preserve" fill="#000000" stroke="#000000" stroke-width="12.685428">
<g id="SVGRepo_bgCarrier" stroke-width="0"/>
<g id="SVGRepo_tracerCarrier" stroke-linecap="round" stroke-linejoin="round"/>
<g id="SVGRepo_iconCarrier"> <g> <g> <g> <path style="fill:#ffffff;" d="M429.353,226.161c-7.592-9.145-14.745-17.777-18.558-27.296 c-3.341-8.332-4.154-18.102-4.934-27.572c-1.195-14.217-2.43-28.93-11.933-40.545c-8.47-10.356-27.727-21.923-39.724-25.824 c-7.202-2.341-14.68-2.65-21.053-2.65c-1.983,0-3.959,0.033-5.926,0.065c-1.991,0.033-3.95,0.065-5.918,0.065 c-10.421,0-18.972-1.032-26.881-6.096c-4.885-3.13-8.852-7.299-13.046-11.73c-3.845-4.064-7.828-8.275-12.648-11.64 c-7.852-5.479-17.135-6.316-26.133-7.129c-5.804-0.52-11.282-1.016-16.086-2.731c-0.211-0.081-0.39-0.098-0.545-0.098 c-0.455-0.089-0.902-0.065-1.284,0l-0.496,0.098c-4.796,1.715-9.844,2.203-15.176,2.723c-8.275,0.813-16.81,1.65-24.678,7.137 c-4.796,3.349-8.787,7.568-12.681,11.656c-4.194,4.422-8.145,8.608-13.03,11.713c-7.893,5.064-16.444,6.096-26.873,6.096 c-1.951,0-3.926-0.033-5.918-0.065c-1.967-0.033-3.942-0.065-5.918-0.065c-6.381,0-13.859,0.309-21.061,2.65 c-11.998,3.902-31.271,15.469-39.724,25.824c-9.51,11.632-10.738,26.345-11.933,40.57c-0.797,9.445-1.601,19.208-4.934,27.548 c-3.812,9.543-10.99,18.184-18.606,27.353c-16.786,20.224-34.148,41.155-15.81,73.23c0.894,1.593,3.13,2.154,4.666,1.276 c0.618-0.35,24.646,1.382,35.953,1.813c-0.211,1-0.041,2.073,0.658,2.918c1.171,1.398,3.406,1.618,4.828,0.439 c23.37-19.476,30.482-55.128,32.466-69.824l0.041-0.098c8.161-21.785,29.279-31.173,49.284-37.326 c-0.748,3.056-1.926,6.82-3.211,10.868c-3.536,11.144-7.543,23.784-5.324,32.636c3.121,9.348,7.836,15.168,11.998,20.297 c4.706,5.828,8.771,10.844,10.413,20.525c5.934,20.175-0.065,32.197-5.357,42.813c-9.641,19.24-13.412,32.579,28.287,62.907 c0.536,0.39,87.78,0.065,103.225,0c0,0.008,0.008,0.016,0.008,0.024c0.634,0.886,1.683,1.414,2.788,1.414 c0.723,0,1.423-0.228,2.008-0.658c41.691-30.311,37.92-43.659,28.296-62.899c-5.308-10.6-11.315-22.606-5.267-43.22 c1.528-9.267,5.601-14.298,10.315-20.118c4.162-5.137,8.876-10.949,12.063-20.549c2.146-8.608-1.861-21.24-5.406-32.384 c-1.244-3.967-2.447-7.747-3.186-10.86c20.004,6.145,41.114,15.542,49.308,37.391c1.991,14.68,9.104,50.389,32.474,69.857 c1.398,1.171,3.658,0.959,4.828-0.439c0.862-1.04,0.975-2.439,0.463-3.593c8.072-0.163,37.221-1.479,37.749-1.479 c1.219,0,2.365-0.65,2.975-1.731C463.558,267.348,446.187,246.433,429.353,226.161z M132.18,172.65 c-14.241,4.495-30.572,7.08-44.797,7.08c-13.428,0-24.971-2.252-33.425-6.519l0.114-1.325 c1.154-13.778,2.235-26.808,10.405-36.798c7.503-9.169,25.475-20.045,36.53-23.638c6.275-2.032,12.77-2.317,18.85-2.317 c1.91,0,3.853,0.033,5.885,0.065c8.925,0.146,18.346,0.358,27.808-2.926c0.179,5.958,0.642,11.583,1.057,16.363 C156.761,147.183,158.2,163.408,132.18,172.65z M399.033,172.886c-8.503,4.479-20.281,6.844-34.059,6.844 c-14.209,0-30.507-2.569-44.675-7.039c-26.142-9.283-24.703-25.507-22.532-50.064c0.431-4.861,0.87-10.592,1.065-16.623 c7.73,2.845,15.647,3.235,23.077,3.235c1.829,0,3.633-0.016,5.454-0.049c2.008-0.033,3.975-0.065,5.934-0.065 c6.056,0,12.526,0.276,18.793,2.317c11.063,3.593,29.035,14.469,36.538,23.638c8.185,9.998,9.258,23.02,10.396,36.814 l0.089,0.951C399.106,172.853,399.066,172.878,399.033,172.886z"/> </g> <g> <circle style="fill:#ffffff;" cx="83.271" cy="135.112" r="4.097"/> </g> <g> <circle style="fill:#ffffff;" cx="108.42" cy="124.163" r="4.097"/> </g> <g> <circle style="fill:#ffffff;" cx="134.383" cy="124.163" r="4.097"/> </g> <g> <circle style="fill:#ffffff;" cx="105.405" cy="142.322" r="4.097"/> </g> <g> <circle style="fill:#ffffff;" cx="134.383" cy="142.322" r="4.097"/> </g> <g> <circle style="fill:#ffffff;" cx="70.558" cy="157.027" r="4.097"/> </g> <g> <circle style="fill:#ffffff;" cx="92.464" cy="160.059" r="4.097"/> </g> <g> <circle style="fill:#ffffff;" cx="134.383" cy="160.059" r="4.097"/> </g> <g> <circle style="fill:#ffffff;" cx="114.476" cy="160.059" r="4.097"/> </g> <g> <circle style="fill:#ffffff;" cx="367.348" cy="135.324" r="4.097"/> </g> <g> <circle style="fill:#ffffff;" cx="342.198" cy="124.375" r="4.097"/> </g> <g> <circle style="fill:#ffffff;" cx="316.236" cy="124.375" r="4.097"/> </g> <g> <circle style="fill:#ffffff;" cx="345.23" cy="142.534" r="4.097"/> </g> <g> <circle style="fill:#ffffff;" cx="316.236" cy="142.534" r="4.097"/> </g> <g> <circle style="fill:#ffffff;" cx="380.077" cy="157.246" r="4.097"/> </g> <g> <circle style="fill:#ffffff;" cx="358.147" cy="160.27" r="4.089"/> </g> <g> <circle style="fill:#ffffff;" cx="316.236" cy="160.27" r="4.089"/> </g> <g> <circle style="fill:#ffffff;" cx="336.142" cy="160.27" r="4.089"/> </g> </g> </g> </g>
</svg>