<!DOCTYPE svg PUBLIC "-//W3C//DTD SVG 1.1//EN" "http://www.w3.org/Graphics/SVG/1.1/DTD/svg11.dtd">
<!-- Uploaded to: SVG Repo, www.svgrepo.com, Transformed by: SVG Repo Mixer Tools -->
<svg fill="#000000" height="120px" width="120px" version="1.1" id="Capa_1" xmlns="http://www.w3.org/2000/svg" xmlns:xlink="http://www.w3.org/1999/xlink" viewBox="0 0 445.856 445.856" xml:space="preserve" stroke="#000000" stroke-width="1.7834240000000001">
<g id="SVGRepo_bgCarrier" stroke-width="0"/>
<g id="SVGRepo_tracerCarrier" stroke-linecap="round" stroke-linejoin="round"/>
<g id="SVGRepo_iconCarrier"> <path d="M427.84,202.797c-13.328-17.612-55.705-9.177-60.493-8.157c-3.998,0.851-6.899,4.436-6.899,8.524v11.281l-1.401,0.467 l-4.272-9.257c4.443-9.729,5.087-28.255-1.557-44.202c-2.783-6.68-2.783-6.68-2.016-10.5c0.544-2.71,1.451-7.222,2.205-15.741 c5.222-16.273,7.397-65.795,7.942-80.672c0.055-1.494,0.393-2.941,1.005-4.301l5.265-11.7c1.936-4.303,2.471-9.023,1.545-13.65 L365.486,6.5c-0.445-2.227-1.818-4.176-3.765-5.346c-1.947-1.171-4.311-1.467-6.489-0.814c-4.181,1.254-7.513,4.21-9.141,8.108 c-3.375,8.08-4.651,18.659-3.903,32.341c0.117,2.131-0.239,4.251-1.03,6.133c-11.86,28.232-13.537,59.853-13.707,72.138 c-0.029,2.102-0.317,4.193-0.857,6.217c-2.115,7.936-6.948,27.963-6.141,42.497c0.188,3.379,0.152,6.577-0.024,9.541 c-4.089,4.438-17.753,18.826-27.325,23.612c-7.502,3.755-46.123,24.572-80.989,45.469c-25.044,15.005-42.085,26.431-50.644,33.957 c-1.733,1.517-3.472,3.135-5.316,4.946c-0.048,0.048-0.095,0.097-0.14,0.147c-12.43,12.19-22.841,26.619-31.214,38.222 c-6.29,8.717-11.723,16.246-15.018,18.446c-3.687,2.458-6.343,3.216-9.707,4.177c-4.322,1.234-9.221,2.633-17.251,7.796 c-9.639,6.196-23.023,21.125-32.797,32.026c-4.644,5.18-8.654,9.652-10.502,11.192c-1.639,1.366-3.333,2.433-5.047,3.178 c-4.56,2.004-8.439,5.061-11.219,8.839l-9.54,12.97c-2.929,3.983-3.58,9.102-1.74,13.691c1.84,4.59,5.846,7.843,10.722,8.701 l5.903,1.029c0.542,0.096,1.084,0.143,1.619,0.143c3.612,0,6.939-2.123,8.431-5.534l3.87-8.839 c3.034-6.928,6.728-13.589,10.977-19.798L57.394,406c1.214-1.779,3.03-3.112,5.113-3.752c23.671-7.276,46.135-19.507,57.232-31.16 c1.852-1.945,4.141-3.449,6.622-4.348c10.244-3.721,18.752-8.076,25.282-12.94c4.445-3.294,8.652-6.231,12.862-8.977 c5.842-3.81,13.809-9.621,23.678-17.271c4.34-3.361,8.028-6.296,10.168-8.012l6.169,5.484c0.15,2.648,0.532,9.287,1.072,17.825 c1.058,16.817,2.397,36.171,3.798,51.527c-4.119-1.231-10.993-2.274-22.783-2.754c-13.227-0.538-27.891-0.176-37.207,0.343 c-5.152,0.277-9.963-2.291-12.572-6.727l-0.357-0.607c-1.506-2.56-4.176-4.188-7.141-4.352c-2.948-0.159-5.792,1.155-7.571,3.53 c-20.795,27.761-31.659,44.391-32.289,49.429c-0.102,0.819,0.138,1.645,0.663,2.282c0.526,0.637,1.291,1.029,2.114,1.083 c8.329,0.562,15.766-4.118,23.632-9.067c7.804-4.911,15.874-9.989,25.853-10.939c12.722-1.213,32.443,5.991,48.29,11.779 c9.456,3.454,17.623,6.436,23.001,7.205c2.643,0.378,5.319,0.956,7.906,1.515c11.233,2.426,22.846,4.935,32.015-8.82 c10.703-16.054,8.459-67.212,6.481-83.036c-1.963-15.703,1.202-25.353,10.923-33.306c10.047-8.22,27.461-14.876,29.026-15.465 c1.779-0.486,23.707-6.32,35.838-2.681c1.669,0.501,2.786,2.004,2.714,3.656c-0.663,15.371,9.679,43.8,14.156,55.309 c0.909,2.337,1.424,4.777,1.532,7.256c0.518,11.857,1.855,33.152,4.988,42.552c2.587,7.761,3.428,20.708,3.7,27.735 c0.201,5.207,4.42,9.253,9.627,9.253c0.032,0,0.065,0,0.097,0l39.804-0.387c1.951-0.018,3.583-1.368,3.97-3.28 c0.386-1.913-0.595-3.79-2.387-4.565l-29.201-12.617c-2.845-1.229-4.606-4.023-4.486-7.117c0.643-16.578,1.722-45.504,1.722-52.97 c0-9.205-4.498-20.157-8.466-29.82c-0.607-1.478-1.197-2.914-1.749-4.294c-2.372-5.931-0.099-17.486,1.562-25.922 c0.923-4.693,1.653-8.399,1.653-10.963c0-4.743-3.37-8.112-6.629-11.371c-2.769-2.769-5.632-5.632-6.442-9.28 c-1.414-6.363,1.936-14.251,3.226-16.953l5.135-1.926c11.873,10.847,29.181,14.536,44.659,9.376 c8.259-2.753,15.423-11.024,18.697-21.586C436.745,224.088,434.83,212.035,427.84,202.797z M161.227,339.797 c-4.311,2.813-8.615,5.816-13.163,9.187c-6.066,4.518-14.058,8.595-23.751,12.116c-3.347,1.214-6.432,3.237-8.919,5.851 c-11.871,12.465-36.001,23.829-54.65,29.562c-3.379,1.04-6.329,3.208-8.303,6.102l-3.891,5.681 c-4.461,6.519-8.338,13.51-11.522,20.781l-3.871,8.841c-0.599,1.37-2.042,2.149-3.516,1.886l-5.905-1.029 c-2.813-0.495-5.126-2.373-6.188-5.023c-1.063-2.65-0.687-5.605,1.004-7.905l9.54-12.97c2.158-2.933,5.201-5.32,8.789-6.897 c2.226-0.967,4.408-2.335,6.485-4.066c2.183-1.819,6.13-6.222,11.128-11.796c9.545-10.647,22.617-25.227,31.574-30.985 c7.286-4.684,11.54-5.898,15.655-7.073c3.559-1.017,6.92-1.976,11.389-4.955c4.198-2.802,9.381-9.985,16.554-19.926 c7.633-10.578,16.992-23.54,27.921-34.798c4.307,7.534,14.835,25.054,23.781,32.848 C173.076,331.586,166.305,336.486,161.227,339.797z M247.951,424.943c-6.903,10.356-14.81,8.648-25.755,6.284 c-2.689-0.581-5.471-1.182-8.324-1.589c-4.758-0.68-12.651-3.563-21.792-6.901c-16.415-5.996-36.847-13.456-50.917-12.116 c-11.398,1.086-20.472,6.796-28.479,11.834c-5.662,3.563-10.725,6.75-15.688,7.814c3.343-6.256,12.273-19.783,29.564-42.866 c0.582-0.776,1.476-1.189,2.436-1.136c0.97,0.054,1.809,0.566,2.301,1.402l0.357,0.607c3.754,6.382,10.682,10.09,18.079,9.677 c27.711-1.545,55.531-0.098,60.288,3.022c0.841,8.329,1.691,14.899,2.506,18.327c0.383,1.611,1.996,2.605,3.613,2.225 c1.612-0.383,2.608-2,2.225-3.613c-1.708-7.188-3.983-31.97-6.438-70.023c8.581,4.441,26.886,12.874,42.161,12.874 c0.191,0,0.378-0.01,0.567-0.013C255.728,382.26,255.083,414.246,247.951,424.943z M253.47,345.979 c0.296,2.367,0.578,5.364,0.821,8.778c-16.119,0.113-37.273-10.871-42.814-13.914c-0.64-10.21-1.032-17.325-1.036-17.399 c-0.044-0.798-0.405-1.546-1.002-2.078l-9-8c-1.1-0.978-2.744-1.013-3.885-0.086c-0.047,0.038-4.389,3.563-10.335,8.197 c-7.908-6.114-19.159-24.455-24.223-33.48c1.167-1.109,2.301-2.148,3.431-3.137c7.792-6.85,23.807-17.645,46.404-31.292 c4.213,13.631,13.554,28.028,27.851,42.867c8.344,8.66,16.08,15.047,19.911,18.056C253.635,322.564,251.783,332.478,253.47,345.979z M427.363,234.091c-2.671,8.615-8.505,15.551-14.864,17.67c-13.967,4.658-29.64,1.015-39.93-9.275 c-0.832-0.832-2.074-1.1-3.174-0.688l-8,3c-0.675,0.253-1.235,0.74-1.581,1.372c-0.267,0.489-6.514,12.103-4.295,22.087 c1.189,5.353,4.838,9.001,8.058,12.22c2.614,2.614,4.871,4.872,4.871,7.129c0,1.979-0.748,5.78-1.54,9.805 c-1.905,9.682-4.277,21.732-1.246,29.31c0.559,1.396,1.155,2.849,1.77,4.345c3.757,9.149,8.016,19.521,8.016,27.541 c0,7.64-1.201,39.426-1.717,52.737c-0.217,5.59,2.962,10.637,8.101,12.857l20.928,9.043l-30.793,0.299c-0.013,0-0.025,0-0.037,0 c-1.965,0-3.559-1.524-3.634-3.484c-0.346-8.974-1.322-21.359-4.002-29.401c-3.011-9.032-4.28-31.623-4.686-40.915 c-0.136-3.135-0.787-6.22-1.934-9.169c-3.386-8.704-14.385-38.243-13.754-52.876c0.19-4.398-2.682-8.372-6.985-9.662 c-12.54-3.76-32.688,0.963-38.009,2.339c-0.721,0.186-2.575,0.811-4,1.382c-5.614,2.249-19.397,8.181-28.378,15.53 c-1.066,0.872-2.045,1.772-2.982,2.687c-8.232-6.47-38.594-31.835-46.43-59.587c33.719-20.125,71.588-40.556,78.651-44.092 c7.605-3.802,17.026-12.54,23.471-19.06c-1.132,6.347-2.586,10.232-2.612,10.301c-0.592,1.545,0.179,3.279,1.724,3.873 c1.545,0.594,3.282-0.176,3.878-1.723c0.213-0.556,5.219-13.813,4.195-32.244c-0.76-13.671,3.906-32.96,5.948-40.618 c0.667-2.5,1.023-5.084,1.058-7.68c0.129-9.311,1.467-41.87,13.24-69.896c1.141-2.714,1.656-5.752,1.49-8.785 c-0.698-12.759,0.43-22.474,3.448-29.701c0.933-2.234,2.876-3.938,5.329-4.674c0.769-0.229,1.379,0.032,1.675,0.21 c0.295,0.178,0.814,0.593,0.972,1.38l3.678,18.389c0.679,3.394,0.287,6.856-1.133,10.011l-5.265,11.7 c-0.931,2.07-1.446,4.271-1.529,6.543c-0.385,10.522-2.57,63.798-7.75,79.338c-0.074,0.223-0.122,0.455-0.143,0.689 c-0.731,8.409-1.579,12.631-2.14,15.424c-1.102,5.487-0.882,6.208,2.36,13.989c4.847,11.634,6.46,30.648,1.135,40.41 c-0.454,0.833-0.488,1.832-0.09,2.694l6,13c0.641,1.388,2.224,2.071,3.672,1.589l6-2c1.225-0.409,2.051-1.555,2.051-2.846v-13.443 c0-1.295,0.884-2.387,2.149-2.656c7.19-1.531,18.602-3.049,29.049-2.705c12.67,0.413,21.457,3.392,25.41,8.616 C428.865,214.095,430.435,224.181,427.363,234.091z"/> </g>
</svg>